<svg xmlns="http://www.w3.org/2000/svg" viewBox="0 0 32 32" width="32" height="32">
  <defs>
    <linearGradient id="blueGradient" x1="0%" y1="0%" x2="100%" y2="100%">
      <stop offset="0%" style="stop-color:#0085ff;stop-opacity:1" />
      <stop offset="100%" style="stop-color:#0066cc;stop-opacity:1" />
    </linearGradient>
  </defs>
  
  <!-- Background -->
  <rect width="32" height="32" fill="#1a1a1a"/>
  
  <!-- Butterfly body (pixelated) -->
  <rect x="15" y="8" width="2" height="16" fill="#004080"/>
  <rect x="14" y="9" width="4" height="2" fill="#004080"/>
  <rect x="14" y="21" width="4" height="2" fill="#004080"/>
  
  <!-- Upper left wing (blocky) -->
  <rect x="4" y="4" width="8" height="4" fill="url(#blueGradient)"/>
  <rect x="6" y="6" width="6" height="2" fill="#0066cc"/>
  <rect x="4" y="8" width="6" height="4" fill="url(#blueGradient)"/>
  <rect x="6" y="10" width="4" height="2" fill="#0066cc"/>
  
  <!-- Upper right wing (blocky) -->
  <rect x="20" y="4" width="8" height="4" fill="url(#blueGradient)"/>
  <rect x="20" y="6" width="6" height="2" fill="#0066cc"/>
  <rect x="22" y="8" width="6" height="4" fill="url(#blueGradient)"/>
  <rect x="22" y="10" width="4" height="2" fill="#0066cc"/>
  
  <!-- Lower left wing (blocky) -->
  <rect x="4" y="20" width="6" height="4" fill="url(#blueGradient)"/>
  <rect x="6" y="20" width="4" height="2" fill="#0066cc"/>
  <rect x="4" y="24" width="8" height="4" fill="url(#blueGradient)"/>
  <rect x="6" y="26" width="6" height="2" fill="#0066cc"/>
  
  <!-- Lower right wing (blocky) -->
  <rect x="22" y="20" width="6" height="4" fill="url(#blueGradient)"/>
  <rect x="22" y="20" width="4" height="2" fill="#0066cc"/>
  <rect x="20" y="24" width="8" height="4" fill="url(#blueGradient)"/>
  <rect x="20" y="26" width="6" height="2" fill="#0066cc"/>
  
  <!-- Wing pixel details -->
  <rect x="8" y="6" width="2" height="2" fill="#ffffff" opacity="0.8"/>
  <rect x="22" y="6" width="2" height="2" fill="#ffffff" opacity="0.8"/>
  <rect x="8" y="26" width="2" height="2" fill="#ffffff" opacity="0.8"/>
  <rect x="22" y="26" width="2" height="2" fill="#ffffff" opacity="0.8"/>
  
  <!-- Antennae (pixelated) -->
  <rect x="13" y="6" width="1" height="2" fill="#004080"/>
  <rect x="12" y="4" width="1" height="2" fill="#004080"/>
  <rect x="11" y="2" width="2" height="2" fill="#004080"/>
  
  <rect x="18" y="6" width="1" height="2" fill="#004080"/>
  <rect x="19" y="4" width="1" height="2" fill="#004080"/>
  <rect x="19" y="2" width="2" height="2" fill="#004080"/>
</svg>
